<svg width="41" height="41" viewBox="0 0 41 41" fill="none" xmlns="http://www.w3.org/2000/svg">
<path fill-rule="evenodd" clip-rule="evenodd" d="M0.21582 10.3027C0.21582 4.77989 4.69297 0.302734 10.2158 0.302734H30.2158C35.7387 0.302734 40.2158 4.77989 40.2158 10.3027V30.3027C40.2158 35.8256 35.7387 40.3027 30.2158 40.3027H10.2158C4.69297 40.3027 0.21582 35.8256 0.21582 30.3027V10.3027ZM23.8526 31.8101C22.5684 31.8101 21.5268 31.4098 20.7277 30.6094C19.9287 29.8089 19.53 28.7396 19.5316 27.4016V8.89909H24.4806V14.9601H29.5865V19.054H24.4806V26.5429C24.4806 27.2944 24.8561 27.2935 25.4919 27.2919L25.582 27.2918H29.5865V31.8126L23.8526 31.8101ZM10.8301 14.1192H16.8244V20.1135H10.8301V14.1192Z" fill="#5BBB7B"/>
</svg>
